# xmcd
#
# Track frame offsets:
#	182
#	20412
#	36437
#	57775
#	76772
#	96205
#	115050
#	129837
#	147385
#	166477
#	185112
#	203897
#
# Disc length: 3014 seconds
#
# Revision: 2
# Processed by: cddbd v1.5.2PL0 Copyright (c) Steve Scherf et al.
# Submitted via: EasyCDDAExtractor 15.3.0.1
#
DISCID=a10bc40c
DTITLE=Kiara - Como Un Huracan
DYEAR=1992
DGENRE=Latin
TTITLE0=Liberame
TTITLE1=Azucar
TTITLE2=Baila Conmigo
TTITLE3=Amar Otra Vez
TTITLE4=No Me Importa Nada
TTITLE5=Que Suba La Temperatura
TTITLE6=Baile Del Ombligo
TTITLE7=Locuras Divinas
TTITLE8=Cuando Pienso En Ti
TTITLE9=Hombre Guapo Buscando Novia
TTITLE10=Esta Locura
TTITLE11=Azucar
EXTD=
EXTT0=
EXTT1=
EXTT2=
EXTT3=
EXTT4=
EXTT5=
EXTT6=
EXTT7=
EXTT8=
EXTT9=
EXTT10=
EXTT11=
PLAYORDER=
